<svg width="992" height="388" viewBox="0 0 992 388" fill="none" xmlns="http://www.w3.org/2000/svg">
<path fill-rule="evenodd" clip-rule="evenodd" d="M1095.53 282.284C1133.24 329.046 1194.2 384.678 1151.57 430.058C1107.41 477.059 980.276 466.182 898.36 492.174C834.428 512.461 798.714 561.667 725.729 565.182C652.783 568.694 605.508 518.69 534.027 509.719C424.94 496.027 266.982 553.124 206.097 499.961C146.638 448.042 314.896 393.547 330.827 332.289C344.101 281.251 229.245 221.606 288.645 182.553C350.654 141.786 475.939 191.17 567.378 176.768C642.264 164.974 683.457 107.376 761.162 108.131C838.753 108.886 893.116 150.714 950.29 180.493C1008.14 210.624 1062.85 241.764 1095.53 282.284Z" stroke="white" stroke-opacity="0.04"/>
<path opacity="0.95875" fill-rule="evenodd" clip-rule="evenodd" d="M1082.35 283.497C1117.16 330.977 1174.66 387.782 1129.26 432.291C1082.25 478.388 955.856 464.999 872.392 489.354C807.251 508.362 768.532 556.83 695.376 558.897C622.259 560.963 578.087 510.053 507.202 499.671C399.023 483.827 237.65 537.761 180.071 483.424C123.841 430.359 295.348 379.23 315.037 318.324C331.44 267.581 220.322 205.698 282.088 167.845C346.565 128.331 468.738 180.166 561.007 167.584C636.572 157.28 681.282 100.533 758.893 102.827C836.391 105.118 888.148 147.997 943.456 178.89C999.419 210.149 1052.18 242.354 1082.35 283.497Z" stroke="white" stroke-opacity="0.04"/>
<path opacity="0.9175" fill-rule="evenodd" clip-rule="evenodd" d="M1069.1 284.449C1100.97 332.59 1154.94 390.499 1106.84 434.082C1057.01 479.22 931.523 463.336 846.612 486.022C780.342 503.729 738.667 551.401 665.428 552.017C592.228 552.634 551.214 500.88 481.01 489.1C373.872 471.123 209.28 521.828 155.078 466.384C102.145 412.238 276.692 364.536 300.114 304.058C319.628 253.67 212.383 189.624 276.439 153.018C343.307 114.804 462.217 169.028 555.204 158.282C631.357 149.48 679.529 93.6532 756.952 97.4834C834.261 101.308 883.35 145.186 936.725 177.156C990.732 209.504 1041.48 242.734 1069.1 284.449Z" stroke="white" stroke-opacity="0.04"/>
<path opacity="0.87625" fill-rule="evenodd" clip-rule="evenodd" d="M1055.8 285.139C1084.7 333.882 1135.07 392.824 1084.31 435.428C1031.75 479.551 907.308 461.192 821.053 482.183C753.734 498.565 709.153 545.383 635.921 544.549C562.728 543.715 524.921 491.18 455.485 478.017C349.517 457.929 181.908 505.343 131.148 448.859C81.5769 393.697 258.951 349.482 286.077 289.505C308.678 239.534 205.437 173.403 271.705 138.088C340.882 101.222 456.385 157.768 549.976 148.87C626.624 141.582 678.2 86.743 755.34 92.1043C832.367 97.4578 878.728 142.281 930.105 175.289C982.089 208.687 1030.76 242.902 1055.8 285.139Z" stroke="white" stroke-opacity="0.04"/>
<path opacity="0.835" fill-rule="evenodd" clip-rule="evenodd" d="M1042.47 285.565C1068.35 334.85 1115.06 394.754 1061.72 436.327C1006.47 479.382 883.239 458.569 795.746 477.839C727.461 492.878 680.028 538.784 606.891 536.5C533.794 534.217 499.241 480.966 430.656 466.435C325.988 444.261 155.565 488.326 108.31 430.871C62.1614 374.761 242.146 334.086 272.945 274.682C298.604 225.19 199.493 157.054 267.892 123.073C339.294 87.5998 451.25 146.399 545.331 139.36C622.38 133.595 677.297 79.8107 754.06 86.6966C830.711 93.5724 874.288 139.287 923.603 173.292C973.502 207.699 1020.04 242.858 1042.47 285.565Z" stroke="white" stroke-opacity="0.04"/>
<path opacity="0.79375" fill-rule="evenodd" clip-rule="evenodd" d="M1029.12 285.726C1051.95 335.494 1094.95 396.287 1039.09 436.777C981.224 478.713 859.346 455.471 770.721 472.996C701.553 486.674 651.326 531.613 578.374 527.881C505.462 524.152 474.204 470.249 406.555 454.369C303.315 430.134 130.286 470.798 86.5926 412.442C43.9223 355.452 226.299 318.366 260.731 259.609C289.419 210.655 194.558 140.597 265.005 107.992C338.545 73.9544 446.817 134.935 541.273 129.764C618.63 125.528 676.821 72.8647 753.114 81.2668C829.295 89.6567 870.034 136.206 917.228 171.167C964.981 206.542 1009.33 242.601 1029.12 285.726Z" stroke="white" stroke-opacity="0.04"/>
<path opacity="0.7525" fill-rule="evenodd" clip-rule="evenodd" d="M1015.76 285.623C1035.52 335.813 1074.76 397.421 1016.44 436.78C956.032 477.543 835.658 451.902 746.01 467.661C676.042 479.961 623.082 523.877 550.405 518.703C477.766 513.532 449.842 459.042 383.211 441.832C281.523 415.568 106.099 452.779 66.0213 393.593C26.8814 335.793 211.427 302.342 249.452 244.303C281.133 195.947 190.637 124.053 263.046 92.8624C338.635 60.3026 443.091 123.391 537.808 120.093C615.378 117.392 676.772 65.9136 752.502 75.8216C828.121 85.7152 865.972 133.043 910.988 168.918C956.536 205.217 998.642 242.132 1015.76 285.623Z" stroke="white" stroke-opacity="0.04"/>
<path opacity="0.71125" fill-rule="evenodd" clip-rule="evenodd" d="M1002.42 285.255C1019.08 335.806 1054.51 398.154 993.803 436.334C930.928 475.876 812.204 447.866 721.641 461.84C650.96 472.746 595.331 515.587 523.016 508.977C450.74 502.37 426.184 447.36 360.651 428.841C260.641 400.578 83.0357 434.293 46.6217 374.349C11.06 315.809 197.55 286.034 239.121 228.783C273.756 181.083 187.737 107.441 262.02 77.7036C339.564 46.6608 440.077 111.779 534.939 110.36C612.629 109.197 677.15 58.9656 752.225 70.3676C827.19 81.7529 862.107 129.802 904.89 166.546C948.178 203.725 987.988 241.452 1002.42 285.255Z" stroke="white" stroke-opacity="0.04"/>
<path opacity="0.67" fill-rule="evenodd" clip-rule="evenodd" d="M989.117 284.624C1002.66 335.474 1034.23 398.485 971.21 435.439C905.942 473.712 789.012 443.368 697.645 455.54C626.336 465.039 568.107 506.752 496.243 498.713C424.417 490.679 403.259 435.217 338.905 415.411C240.693 385.185 61.123 415.36 28.4173 354.732C-3.52283 295.523 184.685 269.46 229.751 213.067C267.298 166.083 185.86 90.7816 261.926 62.5338C341.332 33.0457 437.78 100.116 532.671 100.576C610.385 100.952 677.956 52.0295 752.284 64.9115C826.503 77.7746 858.444 126.486 898.941 164.055C939.917 202.069 977.383 240.562 989.117 284.624Z" stroke="white" stroke-opacity="0.04"/>
<path opacity="0.62875" fill-rule="evenodd" clip-rule="evenodd" d="M975.856 283.729C986.262 334.816 1013.94 398.415 948.686 434.098C881.104 471.055 766.111 438.413 674.052 448.768C602.202 456.849 541.443 497.384 470.117 487.926C398.829 478.474 381.094 422.627 317.997 401.558C221.704 369.405 40.3879 396.006 11.4303 334.767C-16.8494 274.961 172.847 252.641 221.353 197.176C261.766 150.964 185.008 74.0953 262.765 47.3713C343.937 19.474 436.201 88.4132 531.006 90.7525C608.649 92.6683 679.188 45.1135 752.678 59.4598C826.061 73.7851 854.988 123.099 893.149 161.448C931.763 200.25 966.839 239.461 975.856 283.729Z" stroke="white" stroke-opacity="0.04"/>
<path opacity="0.5875" fill-rule="evenodd" clip-rule="evenodd" d="M962.658 282.572C969.916 333.834 993.666 397.942 926.258 432.311C856.444 467.907 743.529 433.008 650.889 441.533C578.586 448.186 515.372 487.492 444.67 476.628C374.007 465.77 359.717 409.605 297.954 387.3C203.697 353.259 20.8555 376.252 -4.31855 314.477C-28.9033 254.148 162.05 235.599 213.937 181.128C257.168 135.744 185.183 57.4023 264.536 32.2347C347.374 5.96205 435.342 76.6867 529.946 80.9023C607.424 84.3548 680.844 38.2261 753.407 54.0192C825.864 69.7893 851.741 119.646 887.521 158.727C923.725 198.271 956.368 238.153 962.658 282.572Z" stroke="white" stroke-opacity="0.04"/>
<path opacity="0.54625" fill-rule="evenodd" clip-rule="evenodd" d="M949.539 281.155C953.64 332.529 973.434 397.069 903.953 430.082C831.993 464.273 721.293 427.158 628.185 433.843C555.517 439.061 489.924 477.091 419.934 464.833C349.982 452.582 339.154 396.168 278.8 372.653C186.694 336.766 2.54979 356.124 -18.8101 293.888C-39.6701 233.108 152.307 218.353 207.513 164.942C253.508 120.443 186.385 40.723 267.237 17.1424C351.64 -7.47354 435.205 64.9504 529.492 71.0372C606.711 76.0221 682.923 31.3757 754.471 48.5964C825.914 65.792 848.709 116.131 882.064 155.897C915.814 196.134 945.985 236.638 949.539 281.155Z" stroke="white" stroke-opacity="0.04"/>
<path opacity="0.505" fill-rule="evenodd" clip-rule="evenodd" d="M936.515 279.478C937.455 330.903 953.268 395.795 881.799 427.412C807.78 460.157 699.43 420.872 605.968 425.709C533.023 429.484 465.132 466.192 395.938 452.555C326.782 438.926 319.43 382.332 260.559 357.636C170.716 319.946 -14.507 335.645 -32.0268 273.024C-49.1364 211.868 143.631 200.924 202.088 148.64C250.791 105.079 188.611 24.0776 270.864 2.11276C356.729 -20.8164 435.79 53.2185 529.646 61.1691C606.51 67.6804 685.422 24.5706 755.867 43.198C826.209 61.7982 845.895 112.558 876.784 152.961C908.039 193.841 935.701 234.918 936.515 279.478Z" stroke="white" stroke-opacity="0.04"/>
<path opacity="0.46375" fill-rule="evenodd" clip-rule="evenodd" d="M923.603 277.545C921.38 328.957 933.193 394.122 859.823 424.304C783.836 455.564 677.967 414.157 584.264 417.14C511.132 419.467 441.025 454.808 372.712 439.809C304.435 424.818 300.568 368.114 243.252 342.266C155.781 302.821 -30.2942 314.841 -43.9525 251.911C-57.291 190.454 136.032 183.334 197.668 132.24C249.021 89.6696 191.86 7.48641 275.414 -12.8359C362.636 -34.0505 437.096 41.5053 530.406 51.31C606.823 59.3398 688.337 17.8192 757.594 37.8305C826.75 57.8126 843.302 108.932 871.688 149.921C900.41 191.396 925.529 232.996 923.603 277.545Z" stroke="white" stroke-opacity="0.04"/>
<path opacity="0.4225" fill-rule="evenodd" clip-rule="evenodd" d="M910.817 275.357C905.434 326.693 913.232 392.053 838.052 420.764C760.188 450.499 656.93 407.02 563.101 408.145C489.87 409.023 417.632 442.954 350.283 426.611C282.97 410.277 282.593 353.53 226.901 326.564C141.909 285.409 -44.7924 293.737 -54.5725 230.575C-64.1236 168.891 129.52 165.605 194.26 115.762C248.199 74.235 196.127 -9.03029 280.879 -27.6853C369.353 -47.1594 439.122 29.8251 531.771 41.472C607.649 51.0104 691.666 11.1297 759.65 32.5005C827.535 53.8401 840.934 105.256 866.782 146.783C892.936 188.801 915.482 230.873 910.817 275.357Z" stroke="white" stroke-opacity="0.04"/>
<path opacity="0.38125" fill-rule="evenodd" clip-rule="evenodd" d="M898.174 272.917C889.637 324.116 893.411 389.59 816.511 416.794C736.866 444.969 636.345 399.472 542.504 398.738C469.263 398.164 394.983 430.644 328.68 412.977C262.413 395.32 265.525 338.6 211.525 310.547C129.116 267.734 -57.984 272.359 -63.874 209.041C-69.6262 147.206 124.101 147.757 191.867 99.2268C248.327 58.7935 201.407 -25.4524 287.255 -42.4174C376.873 -60.1273 441.865 18.1922 533.741 31.667C608.986 42.7025 695.405 4.51015 762.033 27.2145C828.564 49.8857 838.793 101.536 862.072 143.549C885.626 186.059 905.571 228.553 898.174 272.917Z" stroke="white" stroke-opacity="0.04"/>
<path opacity="0.34" fill-rule="evenodd" clip-rule="evenodd" d="M885.688 270.228C874.008 321.227 873.754 386.736 795.227 412.4C713.899 438.98 616.236 391.52 522.497 388.927C449.337 386.904 373.105 417.892 307.928 398.923C242.787 379.964 249.385 323.34 197.144 294.235C117.417 249.816 -69.8529 250.732 -71.8457 187.337C-73.7918 125.425 119.784 129.813 190.493 82.6544C249.405 43.3639 207.693 -41.76 294.533 -57.0143C385.185 -72.9384 445.321 6.62068 536.313 21.9071C610.833 34.4261 699.548 -2.03131 764.74 21.9789C829.836 45.954 836.882 97.775 857.564 140.224C878.49 183.175 895.809 226.037 885.688 270.228Z" stroke="white" stroke-opacity="0.04"/>
<path opacity="0.29875" fill-rule="evenodd" clip-rule="evenodd" d="M873.375 267.294C858.566 318.03 854.284 383.494 774.227 407.587C691.313 432.54 596.629 383.175 503.107 378.727C430.115 375.256 352.024 404.716 288.054 384.467C224.118 364.229 234.194 307.771 183.774 277.648C106.828 231.677 -80.3847 228.884 -78.4778 165.487C-76.6156 103.575 116.572 111.794 190.138 66.0648C251.43 27.9652 214.979 -57.9331 302.703 -71.4581C394.279 -85.577 449.487 -4.87532 539.483 12.204C613.188 26.1914 704.091 -8.48672 767.766 16.8C831.349 42.0499 835.204 93.9789 853.263 136.812C871.535 180.151 886.208 223.33 873.375 267.294Z" stroke="white" stroke-opacity="0.04"/>
<path opacity="0.2575" fill-rule="evenodd" clip-rule="evenodd" d="M861.25 264.117C843.33 314.529 835.025 379.869 753.535 402.362C669.138 425.657 577.547 374.446 484.355 368.149C411.622 363.234 331.766 391.129 269.08 369.626C206.428 348.134 219.969 291.91 171.433 260.806C97.3599 213.34 -89.5665 206.84 -83.7623 143.52C-78.094 81.6818 114.471 93.7226 190.804 49.4783C254.401 12.6158 223.255 -73.9521 311.757 -85.7313C404.146 -98.0278 454.357 -16.2818 543.248 2.56956C616.048 18.0083 709.028 -14.8482 771.11 11.6843C833.101 38.1781 833.76 90.1518 849.174 133.316C864.77 176.991 876.778 220.434 861.25 264.117Z" stroke="white" stroke-opacity="0.04"/>
<path opacity="0.21625" fill-rule="evenodd" clip-rule="evenodd" d="M849.328 260.702C828.319 310.728 816.001 375.864 733.178 396.729C647.399 418.339 559.013 365.345 466.265 357.206C393.878 350.854 312.356 377.15 251.031 354.418C189.738 331.698 206.729 275.776 160.134 243.731C89.0258 194.826 -97.3871 184.628 -87.6926 121.461C-78.225 59.7731 113.482 75.6206 192.489 32.9151C258.315 -2.66527 232.511 -89.7973 321.684 -99.8165C414.772 -110.276 459.926 -27.5849 547.604 -6.98438C619.41 9.88685 714.353 -21.1081 774.766 6.63795C835.09 34.3434 832.553 86.2985 845.303 129.742C858.203 173.699 867.533 217.354 849.328 260.702Z" stroke="white" stroke-opacity="0.04"/>
<path opacity="0.175" fill-rule="evenodd" clip-rule="evenodd" d="M837.624 257.053C813.551 306.633 797.235 371.485 713.179 390.697C626.124 410.595 541.05 355.882 448.859 345.911C376.907 338.129 293.817 362.794 233.927 338.862C174.069 314.942 194.489 259.391 149.893 226.442C81.8351 176.158 -103.837 162.274 -90.2642 99.3381C-77.009 37.8751 113.606 57.51 195.192 16.3954C263.166 -17.8596 242.735 -105.45 332.47 -113.697C426.145 -122.305 466.186 -38.7708 552.544 -16.4462C623.268 1.83692 720.06 -27.2586 778.73 1.66705C837.313 30.5505 831.583 82.4237 841.653 126.093C851.843 170.279 858.483 214.092 837.624 257.053Z" stroke="white" stroke-opacity="0.04"/>
<path opacity="0.13375" fill-rule="evenodd" clip-rule="evenodd" d="M826.15 253.175C799.043 302.248 778.749 366.737 693.563 384.272C605.337 402.434 523.68 346.07 432.158 334.279C360.729 325.076 276.173 348.081 217.791 322.976C159.44 297.886 183.263 242.773 140.721 208.961C75.7967 157.36 -108.909 139.807 -91.4738 77.1776C-74.447 16.0145 114.845 39.4128 198.909 -0.0607849C268.948 -32.9485 253.916 -120.89 344.103 -127.354C438.25 -134.103 473.13 -49.826 558.063 -25.8045C627.62 -6.13169 726.142 -33.2924 782.997 -3.22232C839.769 26.8039 830.852 78.532 838.231 122.374C845.697 166.735 849.639 210.653 826.15 253.175Z" stroke="white" stroke-opacity="0.04"/>
<path opacity="0.0925" fill-rule="evenodd" clip-rule="evenodd" d="M814.922 249.072C784.814 297.577 760.567 361.625 674.354 377.463C585.065 393.866 506.924 335.919 416.183 322.322C345.363 311.711 259.444 333.026 202.641 306.781C145.869 280.55 173.067 225.942 132.63 191.308C70.918 138.453 -112.595 117.252 -91.3199 55.0066C-70.5424 -5.78194 117.195 21.3513 203.636 -16.4333C275.654 -47.9138 266.039 -136.099 356.569 -140.774C451.074 -145.653 480.75 -60.7368 564.154 -35.0478C632.459 -14.0092 732.591 -39.202 787.562 -8.02417C842.453 23.1082 830.361 74.6282 835.039 118.59C839.773 163.071 841.011 207.041 814.922 249.072Z" stroke="white" stroke-opacity="0.04"/>
<path opacity="0.05125" fill-rule="evenodd" clip-rule="evenodd" d="M803.954 244.749C770.881 292.628 742.71 356.157 655.576 370.277C565.333 384.902 490.803 325.442 400.953 310.057C330.829 298.049 243.651 317.65 188.497 290.296C133.373 262.956 163.912 208.92 125.629 173.507C67.2051 119.461 -114.893 94.6385 -89.8025 32.8522C-65.2995 -27.4877 120.655 3.34739 209.366 -32.7021C283.277 -62.737 279.091 -151.059 369.853 -153.938C464.6 -156.942 489.036 -71.49 570.81 -44.1647C637.779 -21.7861 739.4 -44.9803 792.42 -12.7326C845.363 19.4679 830.11 70.717 832.082 114.745C834.078 159.293 832.612 203.26 803.954 244.749Z" stroke="white" stroke-opacity="0.04"/>
<path opacity="0.01" fill-rule="evenodd" clip-rule="evenodd" d="M793.258 240.213C757.261 287.408 725.2 350.34 637.251 362.726C546.164 375.554 475.335 314.655 386.487 297.499C317.143 284.11 228.813 301.972 175.375 273.542C121.965 245.127 155.809 191.729 119.727 155.579C64.6621 100.409 -115.798 71.995 -86.9239 10.7433C-58.7253 -49.0746 125.22 -14.5751 216.094 -48.8456C291.806 -77.3983 293.054 -165.75 383.938 -166.829C478.812 -167.955 497.979 -82.0706 578.022 -53.1423C643.575 -29.4509 746.56 -50.6182 797.565 -17.3401C848.495 15.8894 830.1 66.8052 829.363 110.845C828.618 155.406 824.449 199.317 793.258 240.213Z" stroke="white" stroke-opacity="0.04"/>
<circle cx="774" cy="109" r="1" transform="rotate(90 774 109)" fill="white"/>
<circle cx="887" cy="242" r="1" transform="rotate(90 887 242)" fill="white"/>
<circle cx="240" cy="45" r="1" transform="rotate(90 240 45)" fill="white"/>
<circle cx="106" cy="144" r="1" transform="rotate(90 106 144)" fill="white"/>
<circle cx="190" cy="212" r="1" transform="rotate(90 190 212)" fill="white"/>
<circle cx="172" cy="379" r="1" transform="rotate(90 172 379)" fill="white"/>
</svg>
